<?xml version="1.0" standalone="no"?>
<!DOCTYPE svg PUBLIC "-//W3C//DTD SVG 1.1//EN" "http://www.w3.org/Graphics/SVG/1.1/DTD/svg11.dtd" >
<svg xmlns="http://www.w3.org/2000/svg">
<metadata>Generated by IcoMoon</metadata>
<defs>
<font id="icomoon" horiz-adv-x="1024">
<font-face units-per-em="1024" ascent="960" descent="-64" />
<missing-glyph horiz-adv-x="1024" />
<glyph unicode="&#x20;" horiz-adv-x="512" d="" />
<glyph unicode="&#xe900;" glyph-name="sms1" d="M105.98 198.785h376.125l320.267-262.787v262.787h115.648c58.355 0 105.809 48.296 105.809 107.682v545.85c0 59.387-47.452 107.682-105.809 107.682h-812.040c-58.355 0-105.809-48.296-105.809-107.682v-545.848c0-59.387 47.454-107.685 105.809-107.685zM711.502 773.887c49.746 0 90.073-40.148 90.073-89.674s-40.328-89.674-90.073-89.674c-49.748 0-90.076 40.148-90.076 89.674s40.328 89.674 90.076 89.674zM556.12 475.104c0 84.069 91.609 85.089 91.609 85.089h127.541c0 0 91.609-1.527 91.609-85.089 0-72.663 0-78.97 0-79.379h-310.759c0 0.409 0 6.716 0 79.379zM158.431 772.938h304.398v-63.979h-304.398v63.979zM158.431 616.085h304.398v-63.979h-304.398v63.979zM158.431 459.262h304.398v-63.979h-304.398v63.979z" />
<glyph unicode="&#xe901;" glyph-name="bell" d="M963.761 149.558c-149.287 92.145-141.242 391.613-141.112 396.103 0 139.802-92.898 258.252-220.187 297.087v26.799c-0.006 49.866-40.586 90.453-90.459 90.453s-90.459-40.586-90.459-90.459v-26.799c-127.29-38.859-220.181-157.544-220.158-298.598 2.886-83.741-16.855-317.874-141.142-394.587-16.685-10.302-24.513-30.443-19.159-49.331 5.36-18.871 22.585-31.9 42.214-31.9h262.742c17.361-75.666 85.105-132.326 165.96-132.326s148.6 56.66 165.96 132.326h262.742c19.629 0 36.855 13.029 42.214 31.9 5.354 18.889-2.474 39.029-19.159 49.331zM472.645 156.099h-281.513c104.816 147.93 98.387 378.989 97.999 389.556 0 122.87 99.985 222.844 222.902 222.844 122.87 0 222.844-99.973 222.873-221.327-0.411-11.83-6.841-243.113 97.969-391.072h-360.23z" />
<glyph unicode="&#xe902;" glyph-name="boy-talking" d="M537.546 368.617c163.049 0 295.71 132.611 295.71 295.672 0 163.086-132.661 295.71-295.71 295.71-163.074 0-295.735-132.624-295.735-295.71 0-163.061 132.661-295.672 295.735-295.672zM313.697 755.453c66.537 6 340.177 60.951 352.665 98.228 9.632-67.64 60.337-163.437 111.931-210.722-10.86-123.342-114.574-220.492-240.772-220.492-133.388 0-241.849 108.524-241.849 241.849 0.038 32.254 6.501 62.967 18.025 91.138zM948.657 192.429v-256.442h-822.259v256.442c0 42.575 11.699 82.295 31.828 116.553 34.346-40.020 82.132-62.366 130.695-59.059 26.855 1.829 51.732 11.637 71.485 27.832 2.605 1.804 7.428 5.023 11.261 9.77 9.482 10.91 15.545 22.797 20.956 33.193 2.242 4.384 4.534 8.806 7.165 13.152 3.257 5.374 6.852 14.342 5.937 26.254 40.458-17.561 84.963-27.457 131.834-27.457 85.789 0 163.788 32.981 222.709 86.641 107.196-19.979 188.389-113.872 188.389-226.881zM170.226 352.81c-15.657 25.753-30.463 51.97-44.567 78.662h-0.125c-0.338 0.689-0.614 1.428-0.952 2.142-0.388 0.689-0.802 1.39-1.177 2.117l0.088 0.088c-13.064 27.156-25.427 54.65-36.801 82.633-29.786 73.051 1.866 147.605 62.116 162.711 2.605 0.802 5.148 1.967 7.741 2.23 15.945 1.202 32.104-3.545 48.074-4.948 20.392-1.841 28.647-101.284 2.48-101.121-9.657 0.113-38.667 5.060-47.861 1.954-8.092-2.743-8.981-15.758-5.048-25.44 10.359-25.49 27.945-55.853 41.21-81.806l0.050 0.088c0.363-0.739 0.676-1.466 1.027-2.255 0.401-0.676 0.789-1.453 1.115-2.117l-0.025-0.050c12.964-26.004 26.968-58.233 41.298-81.781 5.449-8.818 16.434-15.92 23.498-10.998 7.904 5.511 21.156 31.69 26.805 39.632 15.357 21.094 90.462-44.579 79.852-62.116-8.342-13.666-14.079-29.323-24.576-41.435-1.729-2.179-4.234-3.382-6.351-5.023-47.986-39.456-126.736-20.63-167.871 46.834z" />
<glyph unicode="&#xe903;" glyph-name="calendar-clock" d="M262.262 380.749c5.025-6.438 7.517-15.299 7.517-26.575v-269.166c0-31.508-10.736-47.269-32.209-47.269-9.546 0-17.236 3.219-23.032 9.643-5.801 6.419-8.701 15.903-8.701 28.45v213.925c-39.82-30.552-66.625-45.838-80.41-45.838-6.575 0-12.418 2.61-17.507 7.844-5.096 5.254-7.648 11.34-7.648 18.228 0 7.998 2.513 13.868 7.529 17.624 5.022 3.775 13.868 8.627 26.561 14.587 18.961 8.928 34.129 18.355 45.484 28.213 11.368 9.868 21.436 20.916 30.217 33.114 8.774 12.243 14.506 19.763 17.162 22.603 2.667 2.817 7.681 4.198 15.051 4.198 8.315 0.048 14.984-3.168 19.986-9.581zM401.133 381.564c-14.803-5.884-27.049-13.594-36.677-23.157-9.645-9.567-16.891-20.204-21.744-31.972-4.855-11.74-7.285-23.030-7.285-33.84 0-8.951 2.587-15.993 7.761-21.174 5.174-5.192 11.681-7.768 19.517-7.768 8.933 0 15.717 2.814 20.342 8.448 4.623 5.631 8.774 13.705 12.459 24.241 3.685 10.481 6.314 16.896 7.878 19.258 11.752 18.019 27.896 27.055 48.434 27.055 9.716 0 18.679-2.19 26.915-6.587 8.253-4.414 14.741-10.536 19.517-18.483 4.774-7.906 7.182-16.896 7.182-26.915 0-9.27-2.226-18.681-6.704-28.324-4.485-9.643-10.984-19.039-19.533-28.188-8.533-9.188-19.235-18.329-32.080-27.382-7.216-4.889-19.193-15.014-35.967-30.451s-35.579-33.994-56.422-55.602c-5.027-5.33-9.643-12.662-13.882-21.978-4.218-9.342-6.343-16.806-6.343-22.451 0-8.774 3.295-16.406 9.884-22.918 6.592-6.513 15.759-9.758 27.513-9.758h173.009c10.373 0 18.065 2.667 23.17 7.995 5.11 5.316 7.641 11.825 7.641 19.506 0 8.629-3.217 15.446-9.622 20.445-6.438 5.041-15.782 7.543-27.99 7.543h-122.746c3.931 5.934 7.763 11.040 11.536 15.288 8.779 10.66 24.946 25.633 48.546 44.902 23.584 19.29 40.415 33.422 50.421 42.435 10.031 9.002 19.86 21.47 29.514 37.378 9.631 15.89 14.46 33.567 14.46 53.001 0 12.372-2.327 24.354-6.941 35.843-4.602 11.54-11.060 21.688-19.386 30.451-8.335 8.763-17.964 15.676-28.919 20.675-16.917 7.522-37.385 11.295-61.371 11.295-19.915 0-37.27-2.941-52.087-8.813zM1024 639.528c0-174.24-141.751-316.010-316.013-316.010v-330.337c0-29.054-23.66-52.716-52.725-52.716h-602.541c-29.066-0.002-52.721 23.662-52.721 52.716v552.359c0 0.825 0.209 1.585 0.246 2.396v91.592c0 11.164 14.396 20.216 32.183 20.216h57.472v37.741c0 33.422 27.161 60.585 60.565 60.585 33.41 0 60.571-27.161 60.571-60.585v-37.741h94.88v37.741c0 33.422 27.175 60.585 60.587 60.585 16.489 0 31.255-6.785 42.132-17.518 42.244 124.835 160.43 214.987 299.349 214.987 174.263 0 316.015-141.763 316.015-316.010zM336.056 659.744h56.647c0.756 11.906 2.19 23.623 4.232 35.133v2.596c0 16.792-13.661 30.449-30.428 30.449-16.804 0-30.449-13.672-30.449-30.449v-37.73zM120.012 659.744h60.905v37.741c0 16.79-13.672 30.449-30.449 30.449-16.772 0-30.456-13.672-30.456-30.449v-37.741zM662.844 326.801c-80.183 11.529-150.762 53.268-199.75 113.288h-417.916v-446.911c0-4.147 3.4-7.515 7.543-7.515h602.58c4.124 0 7.543 3.37 7.543 7.515v333.623zM972.501 639.528c0 145.848-118.678 264.514-264.514 264.514-145.852 0-264.512-118.666-264.512-264.514 0-145.846 118.659-264.512 264.512-264.512 145.848 0 264.514 118.666 264.514 264.512zM889.256 766.964c-9.234 10.856-25.489 12.119-36.271 2.911l-148.001-126.122-154.169 87.105c-12.347 7-28.089 2.619-35.083-9.764-6.989-12.37-2.61-28.087 9.76-35.076l169.811-95.951c3.961-2.238 8.322-3.338 12.648-3.338 5.983 0 11.94 2.086 16.694 6.153l161.703 137.791c10.86 9.231 12.131 25.482 2.909 36.291z" />
<glyph unicode="&#xe904;" glyph-name="car" d="M1023.986 400.924c0 20.142-4.548 39.38-12.76 56.98-0.846 4.474-1.814 8.942-3.024 13.474l-88.948 220.438-0.602 1.983c-31.122 92.665-75.404 178.429-187.689 178.429h-429.312c-115.053 0-155.71-87.889-187.513-177.915l-93.041-220.975c-13.451-21.551-21.098-46.203-21.098-72.414v-68.594c0-10.605 1.254-20.979 3.637-30.971-2.317-6.037-3.637-12.543-3.637-19.401v-204.013c0-29.916 24.252-54.173 54.169-54.173h112.409c29.9 0 54.153 24.257 54.153 54.173v102.021h588.947v-102.021c0-29.916 24.257-54.173 54.176-54.173h105.972c29.928 0 54.176 24.257 54.176 54.173v204.036c0 6.833-1.334 13.368-3.633 19.385 2.374 10.008 3.633 20.37 3.633 30.973v68.582h-0.014zM180.152 672.181c35.418 99.926 63.9 130.43 121.5 130.43h429.286c57.177 0 89.015-34.022 121.367-130l64.909-131.537c-21.194 7.849-44.518 12.204-69.022 12.204h-672.398c-22.063 0-43.147-3.548-62.6-9.969l66.958 128.872zM235.91 306.28h-118.604c-21.354 0-38.673 17.335-38.673 38.687 0 21.359 17.319 38.682 38.673 38.682h118.604c21.363 0 38.682-17.323 38.682-38.682 0-21.352-17.33-38.687-38.682-38.687zM654.882 314.028h-275.876c-13.526 0-24.486 10.966-24.486 24.486 0 13.544 10.96 24.506 24.486 24.506h275.876c13.542 0 24.499-10.962 24.499-24.506 0-13.519-10.957-24.486-24.499-24.486zM903.69 306.28h-118.599c-21.372 0-38.682 17.335-38.682 38.687 0 21.359 17.323 38.682 38.682 38.682h118.599c21.372 0 38.696-17.323 38.696-38.682 0-21.352-17.323-38.687-38.696-38.687z" />
<glyph unicode="&#xe905;" glyph-name="carwheel" d="M512.004 960c-282.319 0-512.004-229.681-512.004-512s229.685-512 512.004-512c282.315 0 512 229.681 512 512s-229.689 512-512 512zM512.004 84.355c-200.84 0-363.649 162.806-363.649 363.645s162.81 363.645 363.649 363.645c200.832 0 363.645-162.806 363.645-363.645s-162.818-363.645-363.645-363.645zM512.004 764.567c-174.561 0-316.571-142.010-316.571-316.567s142.014-316.567 316.571-316.567c174.557 0 316.567 142.010 316.567 316.567s-142.014 316.567-316.567 316.567zM788.031 468.184h-153.601c-3.138 19.411-10.806 37.314-21.865 52.618l108.438 108.438c38.066-43.835 62.575-99.692 67.028-161.056zM531.866 724.055c61.328-4.373 117.164-28.789 161.023-66.747l-108.414-108.418c-15.304 11.055-33.202 18.719-52.61 21.857v153.307zM492.138 724.055v-153.303c-19.407-3.138-37.31-10.802-52.614-21.861l-108.418 108.414c43.86 37.958 99.704 62.378 161.031 66.751zM302.989 629.235l108.442-108.438c-11.059-15.3-18.723-33.202-21.861-52.61h-153.601c4.454 61.36 28.962 117.212 67.020 161.048zM235.925 428.46h153.649c3.134-19.407 10.802-37.31 21.861-52.614l-108.74-108.74c-38.026 43.94-62.462 99.901-66.771 161.353zM492.138 171.945c-61.493 4.385-117.462 28.918-161.377 67.048l108.764 108.764c15.304-11.059 33.206-18.723 52.614-21.861v-153.951zM492.138 366.762v-0.29c-8.573 2.084-16.619 5.471-23.949 9.953l0.189 0.189c-11.466 6.992-21.097 16.623-28.089 28.093l-0.185-0.185c-4.482 7.33-7.869 15.372-9.953 23.945h0.286c-1.549 6.377-2.458 13.007-2.458 19.862s0.913 13.485 2.458 19.862h-0.286c2.084 8.569 5.467 16.611 9.953 23.941l0.185-0.185c6.992 11.466 16.627 21.101 28.089 28.089l-0.189 0.189c7.33 4.482 15.376 7.873 23.949 9.953v-0.29c6.381 1.549 13.007 2.462 19.866 2.462s13.485-0.913 19.866-2.462v0.29c8.573-2.084 16.615-5.467 23.941-9.949l-0.189-0.189c11.47-6.988 21.101-16.623 28.093-28.089l0.185 0.185c4.486-7.33 7.873-15.376 9.957-23.949h-0.286c1.549-6.377 2.458-13.007 2.458-19.862s-0.913-13.485-2.458-19.862h0.286c-2.084-8.573-5.467-16.619-9.957-23.949l-0.185 0.185c-6.992-11.466-16.627-21.097-28.093-28.089l0.189-0.185c-7.326-4.482-15.368-7.869-23.941-9.953v0.29c-6.381-1.549-13.007-2.462-19.866-2.462s-13.485 0.909-19.866 2.462zM531.866 171.945v153.951c19.407 3.138 37.306 10.802 52.61 21.857l108.76-108.76c-43.912-38.131-99.881-62.663-161.369-67.048zM721.304 267.107l-108.736 108.736c11.059 15.304 18.723 33.206 21.865 52.618h153.645c-4.313-61.452-28.745-117.413-66.775-161.353z" />
<glyph unicode="&#xe906;" glyph-name="email" d="M511.991 960c-282.76 0-511.988-229.235-511.988-511.995 0-282.753 229.228-512.005 511.988-512.005s512.005 229.252 512.005 512.005c0 282.76-229.245 511.995-512.005 511.995zM512.002 780.163l302.981-188.93h-605.961l302.981 188.93zM818.758 289.536h-0.031c0-30.304-24.559-54.86-54.86-54.86h-503.731c-30.304 0-54.86 24.559-54.86 54.86v289.675c0 3.205 0.328 6.322 0.86 9.383l289.481-180.509c0.355-0.222 0.734-0.372 1.099-0.577 0.382-0.212 0.771-0.416 1.161-0.611 2.045-1.055 4.151-1.905 6.304-2.461 0.222-0.061 0.444-0.089 0.666-0.14 2.362-0.556 4.755-0.905 7.144-0.905h0.017c0.017 0 0.034 0 0.034 0 2.389 0 4.782 0.338 7.144 0.905 0.222 0.055 0.444 0.079 0.666 0.14 2.15 0.556 4.25 1.406 6.304 2.461 0.389 0.195 0.778 0.399 1.161 0.611 0.362 0.205 0.744 0.355 1.099 0.577l289.481 180.509c0.532-3.062 0.86-6.171 0.86-9.383v-289.675z" />
<glyph unicode="&#xe907;" glyph-name="girl-talking" d="M431.583 397.683c0-29.038-23.539-52.579-52.577-52.579-29.037 0-52.575 23.539-52.575 52.579 0 29.037 23.539 52.577 52.575 52.577 29.038-0.002 52.577-23.542 52.577-52.577zM644.995 450.259c-29.037 0-52.577-23.539-52.577-52.579 0-29.037 23.54-52.575 52.577-52.575s52.579 23.539 52.579 52.575c-0.002 29.038-23.54 52.579-52.579 52.579zM1024 426.99v-99.922c0-50.166-40.667-90.833-90.835-90.833h-65.914c-65.313-181.348-232.097-290.885-355.251-290.885s-289.938 109.536-355.251 290.886h-65.914c-50.168 0-90.835 40.666-90.835 90.833v99.922c0 34.52 19.26 64.54 47.619 79.909 0.952 141.862 42.299 252.657 123.069 329.251 80.116 75.973 194.95 114.499 341.312 114.499s261.195-38.525 341.312-114.497c80.769-76.594 122.114-187.39 123.069-329.251 28.359-15.37 47.619-45.391 47.619-79.912zM831.747 397.35c0 23.373-1.196 45.334-2.963 66.614-40.312 36.882-113.497 64.868-205.859 75.267 12.127-13.637 22.603-31.575 28.956-55.187-56.574 44.569-167.623 33.961-251.62 133.697-4.815 5.57-8.98 10.893-12.581 15.757-0.042 0.059-0.089 0.104-0.131 0.161l0.010-0.003c-14.943 20.209-20.038 32.229-20.323 18.924-2.465-114.636-83.717-204.005-173.943-216.613-0.571-12.608-1.037-25.337-1.037-38.618 0-48.454 7.913-92.615 21.365-132.412 50.681-61.134 134.378-78.396 208.458-82.974 13.752 21.879 44.608 37.153 80.541 37.153 48.719 0 88.211-28.033 88.211-62.618 0-34.582-39.494-62.615-88.211-62.615-37.475 0-69.409 16.615-82.191 40.010-51.774 3.010-108.69 11.836-159.416 35.791 71.335-105.149 181.924-160.75 250.985-160.75 108.522 0 319.747 137.094 319.747 388.416zM921.692 517.824c-5.781 247.552-147.081 378.323-409.692 378.323s-403.909-130.771-409.692-378.323h34.948c12.778 83.438 39.785 152.057 80.791 204.82 65.344 84.075 164.243 126.707 293.953 126.707s228.61-42.632 293.957-126.707c41.002-52.761 68.011-121.382 80.789-204.82h34.947z" />
<glyph unicode="&#xe908;" glyph-name="service2" d="M1012.096 549.168c-6.36 56.003-157.146 0-157.146 0l-8.884-79.687c-3.291 1.881-6.632 3.712-10.146 5.271l-38.086 166.179c-13.958 79.118-73.673 137.398-160.71 134.403h-223.643c-1.361-9.28-3.539-18.264-6.236-27.049h244.975c50.807 0 97.356-32.691 110.077-86.666l40.908-164.076c-2.574 0.074-5.123 0.322-7.721 0.322h-474.31l0.124-159.943h293.826v-35.76h-293.802l0.025-10.443h290.807v-35.834h-290.807l0.099-134.379h313.723v-85.106c0-34.572 42.788-62.661 95.525-62.661s95.451 28.064 95.451 62.661v94.956c45.065 17.026 76.445 54.271 76.445 97.604v152.271c0 33.657-19.006 63.626-48.431 83.3l157.938 8.538c0 0 6.335 20.144 0 76.098zM831.168 258.558h-172.391v81.964h172.391v-81.964zM316.965 291.745h4.38v-35.834h-4.38v35.834zM319.96 337.923h1.361v-35.76h-1.361v35.76zM379.552 799.439c-0.148 68.748-37.517 128.637-93.174 160.561v-148.311l-92.085-53.158-92.16 53.331v148.138c-55.558-31.924-93.001-91.813-93.050-160.561 0-72.089 41.328-134.552 101.564-165.214v-610.792c0-24.154 9.726-46.006 25.564-61.869 15.814-15.838 37.641-25.465 61.844-25.564 48.109 0 87.21 39.051 87.383 87.408l-0.371 614.702c56.399 31.726 94.412 92.16 94.486 161.329zM217.307-15.272c-13.017-13.067-34.201-13.067-47.317 0.025-12.918 12.968-12.893 34.052 0.124 47.119 13.091 13.017 34.201 13.017 47.119 0.099 13.091-13.091 13.116-34.201 0.074-47.243z" />
<glyph unicode="&#xe909;" glyph-name="incoming-call" d="M111.106 805.046c5.667 3.811 10.726 8.837 17.168 11.434 37.642 15.617 80.445 17.033 120.314 26.343 51.033 11.772 150.266-222.818 86.82-243.191-23.577-7.387-97.951-18.551-117.582-33.359-17.506-13.188-9.174-45.535 8.095-65.874 45.535-53.529 112.387-113.163 165.309-165.444l0.067 0.034c1.349-1.383 2.901-2.968 4.351-4.419s3.002-2.934 4.452-4.351h-0.067c52.247-52.888 111.848-119.842 165.41-165.343 20.373-17.303 52.686-25.567 65.874-8.061 14.774 19.597 25.972 94.005 33.325 117.582 20.373 63.446 255.030-35.821 243.225-86.888-9.343-39.835-10.76-82.57-26.343-120.28-2.665-6.375-7.724-11.434-11.468-17.236-84.999-133.941-291.054-151.177-444.557-20.508-58.622 49.886-115.592 101.83-170.976 155.292l-0.304-0.27c-1.45 1.484-2.766 3.036-4.284 4.486-1.383 1.45-2.968 2.833-4.486 4.284l0.27 0.304c-53.495 55.418-105.338 112.286-155.292 170.976-130.568 153.436-113.264 359.525 20.676 444.49zM514.614 823.698l-37.541-374.568c-2.226-22.7 14.504-39.43 37.17-37.17l374.602 37.507c22.734 2.192 28.063 17.303 11.94 33.426l-101.594 101.56 211.62 211.688c16.157 16.157 16.157 42.499 0 58.656l-92.959 93.060c-16.157 16.123-42.601 16.123-58.656 0l-211.654-211.688-99.469 99.469c-16.19 16.157-31.234 10.76-33.46-11.94z" />
<glyph unicode="&#xe90a;" glyph-name="insurance2" d="M1006.19 247.399l-171.322-145.889v-52.369c0-11.208-9.536-18.906-20.746-18.906h-114.27c-11.21 0-20.744 8.031-20.744 18.906v117.449c0 6.19 3.177 12.717 8.031 15.894l209.3 129.997 20.746 276.055c0 23.925 18.906 42.83 42.83 42.83s42.832-18.906 42.832-41.157l20.744-298.307c1.671-24.092-1.34-31.787-17.402-44.503zM184.382 350.292v206.29c0 20.746 3.179 34.967 12.715 55.546l101.555 210.973c11.21 23.925 42.83 44.336 69.767 44.336h287.265c28.442 0 60.398-18.906 71.272-44.336l101.555-210.973c9.536-20.746 12.715-36.473 12.715-55.546v-206.456c0-8.031-8.031-15.894-15.894-15.894h-80.809c-9.536 0-15.894 8.031-15.894 15.894v51.028h-431.65v-50.863c0-8.031-8.031-15.894-15.894-15.894h-80.809c-7.863 0-15.894 8.032-15.894 15.894zM734.987 564.613c-28.442 0-50.859-23.925-50.859-50.861s22.252-50.861 50.859-50.861c28.442 0 50.861 22.252 50.861 50.861s-22.419 50.861-50.861 50.861zM276.4 618.486h472.808l-69.767 145.891c-14.221 28.442-26.936 34.967-55.544 34.967h-223.523c-28.442 0-41.157-6.19-53.873-34.967l-70.101-145.891zM239.927 513.92c0-26.936 22.252-50.861 50.861-50.861s50.861 22.252 50.861 50.861-22.252 50.861-50.861 50.861c-28.609-0.002-50.861-23.925-50.861-50.861zM338.303 180.811l-209.3 129.997-20.746 276.055c1.506 25.431-18.906 44.336-42.83 44.336s-44.336-18.906-44.336-42.663l-20.746-298.474c-1.506-23.925 1.506-31.619 17.4-44.336l171.322-145.889v-52.369c0-11.208 9.536-18.906 20.746-18.906h115.943c11.21 0 20.746 8.031 20.746 18.906v117.449c-0.335 6.192-3.513 12.382-8.198 15.894z" />
<glyph unicode="&#xe90b;" glyph-name="insuranceB" d="M321.846 185.619v89.761h247.962c25.402 6.905 50.439 8.593 73.984 8.593 25.396 0 48.785-2.593 70.649-8.555 32.242-8.793 59.664-16.278 83.83-23.007v22.965h1.999c28.482 0 51.882 24.163 52.003 52.645l0.104 25.613c0.117 28.482-11.227 72.296-25.216 97.108l-5.192 9.318c-6.028 10.695-15.922 20.59-27.501 28.344l-64.21 156.216c-12.522 30.332-43.627 55.231-76.107 63.102-5.9-8.006-13.354-15.366-22.306-21.871-17.825-12.95-39.913-21.764-63.423-30.716h64.759c16.955 0 39.322-14.638 46.003-30.83l48.644-117.622h-433.726l44.808 108.304c-9.711 1.457-19.133 3.038-28.175 5.507-9.045 2.465-17.766 4.681-26.19 7.005l-57.464-139.872c-10.954-7.782-20.21-17.572-25.772-28.151l-4.067-7.761c-13.247-25.219-23.977-69.161-23.849-97.643l0.117-26.045c0.128-28.482 23.538-52.652 52.020-52.652h-0.356v-59.667c20.714-4.388 44.67-14.458 68.008-30.094h28.665zM257.932 403.301c16.896 0 30.595-13.702 30.595-30.595s-13.706-30.595-30.595-30.591c-16.903-0.003-30.595 13.699-30.595 30.591s13.699 30.595 30.595 30.595zM793.334 372.699c0-16.889-13.702-30.584-30.605-30.584-16.892-0.003-30.584 13.702-30.584 30.584 0 16.899 13.699 30.602 30.595 30.595 16.885 0.007 30.595-13.695 30.595-30.595zM595.732 340.975h-162.261c-15.253 0-27.619 12.366-27.619 27.619s12.366 27.619 27.619 27.619h162.261c15.253 0 27.619-12.366 27.619-27.619s-12.366-27.619-27.619-27.619zM324.394 673.441c17.949-4.895 37.551-7.039 57.13-7.039 46.962 0 96.49 12.346 136.896 28.706 55.189 22.337 108.083 34.61 94.47 72.731-2.948 8.244-15.484 11.006-31.927 11.006-33.419 0-82.698-11.41-99.138-11.41-8.186 0-8.213 2.824 5.904 11.296 28.492 17.093 68.84 26.704 112.543 26.701 53.76-0.003 112.609-14.548 160.669-47.587 26.293-18.073 46.983-24.898 62.353-24.898 35.566 0 42.657 36.554 24.788 54.858-37.213 38.114-174.268 149.763-253.237 168.824-9.708 2.344-21.329 3.373-34.351 3.373-93.027-0.003-258.126-52.386-298.739-52.386-22.13 0-60.741 11.831-95.264 24.173v-213.946c17.262-5.434 76.38-22.171 157.904-44.401zM465.257-64c93.027 0 256.973 52.386 297.586 52.386 22.13 0 59.595-11.831 94.118-24.173v213.946c-17.262 5.434-75.234 22.174-156.754 44.401-17.949 4.895-36.978 7.039-56.557 7.039-46.962 0-96.203-12.346-136.61-28.706-55.189-22.337-107.938-34.61-94.325-72.731 2.948-8.244 15.556-11.006 32-11.006 33.419 0 82.732 11.413 99.176 11.41 8.186 0 8.234-2.824-5.883-11.3-28.492-17.093-68.83-26.701-112.533-26.701-53.76 0-112.602 14.548-160.662 47.587-26.293 18.073-46.98 24.898-62.35 24.898-35.566-0.003-42.654-36.554-24.788-54.858 37.213-38.114 174.272-149.763 253.237-168.824 9.698-2.341 21.318-3.369 34.344-3.369z" />
<glyph unicode="&#xe90c;" glyph-name="outGoing" d="M115.728 849.875c5.958 3.972 11.349 9.257 18.088 12.023 39.617 16.457 84.553 17.946 126.546 27.735 53.626 12.378 158.005-234.294 91.292-255.716-24.791-7.767-102.996-19.542-123.638-35.112-18.443-13.868-9.682-47.88 8.512-69.267 47.809-56.286 118.176-118.991 173.752-173.93h0.071c1.454-1.454 3.086-3.086 4.611-4.646 1.525-1.525 3.192-3.050 4.646-4.575v-0.035c54.938-55.577 117.573-126.014 173.894-173.823 21.387-18.23 55.399-26.955 69.267-8.477 15.534 20.606 27.345 98.775 35.077 123.602 21.422 66.713 268.13-37.666 255.787-91.363-9.824-41.922-11.349-86.787-27.771-126.439-2.766-6.703-8.122-12.059-12.059-18.124-89.412-140.874-305.973-158.998-467.525-21.564-61.606 52.456-121.51 107.075-179.782 163.29l-0.319-0.319c-1.525 1.596-2.873 3.192-4.504 4.753-1.525 1.596-3.121 3.015-4.717 4.504l0.284 0.284c-56.18 58.308-110.763 118.14-163.29 179.817-137.292 161.339-119.062 378.042 21.777 467.383zM984.313 526.772l39.475 393.895c2.305 23.834-15.286 41.39-39.12 39.085l-393.895-39.439c-23.869-2.341-29.508-18.23-12.555-35.183l106.862-106.826-222.59-222.555c-16.989-16.989-16.989-44.759 0-61.677l97.818-97.853c16.989-16.989 44.795-16.989 61.712 0l222.59 222.555 104.592-104.592c16.953-16.953 32.807-11.314 35.112 12.591z" />
<glyph unicode="&#xe90d;" glyph-name="report" d="M519.754 886.858h-22.528c-12.037 0-21.795 9.76-21.795 21.795v0.733c0 27.954-22.662 50.614-50.616 50.614h-1.17c-27.954 0-50.614-22.66-50.614-50.614v-0.733c0-12.037-9.76-21.797-21.795-21.797h-22.528c-23.995 0-43.446-19.451-43.446-43.446v-0.878c0-23.995 19.451-43.446 43.446-43.446h191.051c23.994 0 43.445 19.453 43.445 43.446v0.88c-0.002 23.994-19.453 43.446-43.45 43.446zM424.229 886.858c-12.119 0-21.942 9.825-21.942 21.942 0 12.119 9.825 21.944 21.942 21.944 12.119 0 21.942-9.825 21.942-21.944s-9.823-21.942-21.942-21.942zM521.92 38.4h-368.32c-32.316 0-58.514 26.197-58.514 58.514v702.173c0 32.316 26.197 58.514 43.885 58.514h118.553c-0.989-4.859-1.523-9.895-1.523-15.072 0-40.087 32.614-72.701 72.707-72.701h191.043c40.095 0 72.706 32.614 72.706 73.586 0 4.857-0.52 9.592-1.431 14.187h89.202c46.948 0 73.144-26.197 73.144-58.514v-439.597c-4.862 0.303-9.69 0.74-14.627 0.74-20.236 0-39.774-2.851-58.517-7.703v344.161h-512v-585.144h337.197c1.603-25.712 7.222-50.323 16.494-73.142zM738.744 316.342c-105.029 0-190.17-85.144-190.17-190.171s85.139-190.171 190.17-190.171 190.17 85.144 190.17 190.171-85.141 190.171-190.17 190.171zM863.008 165.244l-117.029-131.658c-5.764-6.487-13.794-9.813-21.879-9.813-6.422 0-12.879 2.1-18.265 6.413l-73.144 58.514c-12.614 10.086-14.664 28.501-4.563 41.116 10.084 12.628 28.506 14.672 41.121 4.57l51.448-41.157 98.578 110.9c10.722 12.072 29.222 13.171 41.301 2.428 12.082-10.742 13.166-29.228 2.431-41.311zM607.086 448h-234.056c-8.080 0-14.629 6.551-14.629 14.629v14.629c0 8.080 6.549 14.629 14.629 14.629h234.056c8.078 0 14.63-6.551 14.63-14.629v-14.629c-0.003-8.078-6.552-14.629-14.63-14.629zM607.086 579.658h-234.056c-8.080 0-14.629 6.551-14.629 14.629v14.629c0 8.080 6.549 14.629 14.629 14.629h234.056c8.078 0 14.63-6.551 14.63-14.629v-14.629c-0.003-8.080-6.552-14.629-14.63-14.629zM533.942 330.971h-160.912c-8.080 0-14.629 6.551-14.629 14.629v14.629c0 8.080 6.549 14.629 14.629 14.629h160.912c8.082 0 14.63-6.549 14.63-14.629v-14.629c-0.003-8.078-6.549-14.629-14.63-14.629zM504.686 199.314h-131.658c-8.080 0-14.629 6.551-14.629 14.629v14.629c0 8.080 6.549 14.629 14.629 14.629h131.658c8.080 0 14.629-6.549 14.629-14.629v-14.629c0-8.078-6.549-14.629-14.629-14.629zM330.392 633.757l-53.875-60.61c-2.654-2.987-6.35-4.519-10.073-4.519-2.957 0-5.928 0.967-8.408 2.953l-33.673 26.937c-5.808 4.643-6.75 13.12-2.102 18.927 4.641 5.814 13.125 6.755 18.931 2.105l23.684-18.946 45.382 51.054c4.936 5.557 13.453 6.064 19.013 1.118 5.565-4.946 6.064-13.456 1.121-19.019zM330.392 503.606l-53.875-60.608c-2.654-2.987-6.35-4.518-10.073-4.518-2.957 0-5.928 0.965-8.408 2.953l-33.673 26.937c-5.808 4.643-6.75 13.12-2.102 18.927 4.641 5.814 13.125 6.755 18.931 2.105l23.684-18.947 45.382 51.054c4.936 5.557 13.453 6.064 19.013 1.116 5.565-4.944 6.064-13.456 1.121-19.019zM330.392 379.138l-53.875-60.61c-2.654-2.985-6.35-4.518-10.073-4.518-2.957 0-5.928 0.965-8.408 2.953l-33.673 26.939c-5.808 4.641-6.75 13.12-2.102 18.927 4.641 5.814 13.125 6.755 18.931 2.105l23.684-18.946 45.382 51.054c4.936 5.557 13.453 6.064 19.013 1.118 5.565-4.949 6.064-13.459 1.121-19.023zM330.392 253.791l-53.875-60.61c-2.654-2.987-6.35-4.518-10.073-4.518-2.957 0-5.928 0.965-8.408 2.953l-33.673 26.939c-5.808 4.641-6.75 13.12-2.102 18.927 4.641 5.814 13.125 6.755 18.931 2.105l23.684-18.946 45.382 51.054c4.936 5.557 13.453 6.064 19.013 1.118 5.565-4.949 6.064-13.461 1.121-19.023z" />
<glyph unicode="&#xe90e;" glyph-name="serviceR" d="M991.453 592.277c-3.44 0-6.971-0.49-10.501-1.463l-39.903-10.992-41.437 100.934c-11.737 28.593-46.434 51.855-77.342 51.855h-387.773c-30.908 0-65.605-23.262-77.346-51.855l-30.951-75.416c0.455 5.005 0.71 10.054 0.71 15.146 0 58.497-31.579 112.894-82.418 141.974-2.703 1.546-5.833 2.362-9.058 2.362-10.25 0-17.982-7.999-17.982-18.551 0 0-0.318-81.826-0.31-109.097-0.004-2.86-3.421-6.265-4.845-7.292l-1.024-0.769c-16.358-13.608-36.984-28.938-46.101-33.681-0.573 0.004-1.13 0.020-1.718 0.020-0.628 0-1.22-0.016-1.832-0.020-9.246 4.751-30.206 20.348-46.807 34.215l-1.040 0.785c-0.043 0.027-4.021 3.217-4.021 9.36 0 28.385-0.286 106.418-0.286 106.418-0.012 12.294-8.818 18.727-17.511 18.727-3.362 0-6.834-0.926-9.799-2.62-50.679-29.119-82.159-83.462-82.159-141.825 0-68.453 42.315-127.177 102.15-151.483l-0.008-278.319c0-32.873 26.742-59.615 59.615-59.615h3.393c32.873 0 59.615 26.742 59.615 59.615l0.008 278.213c20.065 8.116 38.494 20.238 54.264 36.007 3.829 3.829 7.438 7.81 10.831 11.937l-16.688-40.648c-10.905-26.561-19.783-71.536-19.783-100.259v-200.514c0-23.168 18.853-42.021 42.021-42.021h54.88c23.168 0 42.021 18.849 42.021 42.021v50.075h472.137v-50.075c0-23.168 18.853-42.021 42.021-42.021h54.872c23.168 0 42.021 18.849 42.021 42.021v200.514c0 28.719-8.873 73.694-19.779 100.259l-6.688 16.291h5.072c23.168 0 42.021 18.849 42.021 42.021v23.521c0.004 19.842-13.683 34.246-32.544 34.246zM345.913 515.3l62.679 152.671c7.018 17.103 27.891 31.096 46.379 31.096h346.846c18.488 0 39.361-13.993 46.379-31.096l62.679-152.671c7.018-17.103-2.365-31.096-20.85-31.096h-523.262c-18.488 0-27.868 13.993-20.85 31.096zM485.827 322.196c0-9.242-7.563-16.809-16.805-16.809h-119.069c-9.242 0-16.805 7.563-16.805 16.809v57.14c0 9.242 7.563 16.809 16.805 16.809h119.069c9.242 0 16.805-7.563 16.805-16.809v-57.14zM922.505 322.196c0-9.242-7.563-16.809-16.805-16.809h-119.065c-9.242 0-16.805 7.563-16.805 16.809v57.14c0 9.242 7.563 16.809 16.805 16.809h119.065c9.242 0 16.805-7.563 16.805-16.809v-57.14z" />
<glyph unicode="&#xe90f;" glyph-name="set-alarm" d="M1018.931 762.297l-233.188 197.703-65.901-76.040 233.188-197.703 65.901 76.040zM304.158 878.891l-65.901 76.040-233.188-192.634 65.901-76.040 233.188 192.634zM537.347 645.703h-76.040v-304.158l238.257-147.012 40.554 60.836-202.772 121.661v268.673zM512 848.475c-253.465 0-456.238-202.772-456.238-456.238s202.772-456.238 456.238-456.238 456.238 202.772 456.238 456.238c0 253.465-202.772 456.238-456.238 456.238zM512 37.386c-197.703 0-354.851 157.147-354.851 354.851 0 197.703 157.149 354.851 354.851 354.851s354.851-157.149 354.851-354.851c0-197.705-157.149-354.851-354.851-354.851z" />
<glyph unicode="&#xe910;" glyph-name="smartphone" d="M951.281 489.504h-115.684c-30.163 0-54.627-24.464-54.627-54.729v-5.933c0-30.295 24.464-54.773 54.671-54.773h115.64c30.222 0 54.758 24.581 54.758 54.773l-0.058 6.006c0.058 30.192-24.478 54.656-54.7 54.656zM951.339 626.042h-24.098v264.776c0 38.055-31.128 69.182-69.197 69.182h-456.525c-38.055 0-69.182-31.142-69.182-69.182v-189.967c-92.083-52.055-187.059-106.433-187.263-106.565-51.558-21.219-127.098-89.686-127.098-251.36 0-14.439 0.95-27.767 2.28-40.641 0.424-3.77 0.891-7.395 1.403-11.034 1.33-9.455 2.996-18.501 4.983-27.094 0.716-3.069 1.271-6.269 2.046-9.207 2.674-9.937 5.773-19.261 9.251-28.132 1.754-4.399 3.653-8.403 5.568-12.524 2.046-4.34 4.107-8.608 6.313-12.597 2.557-4.808 5.115-9.441 7.921-13.839 0.672-1.023 1.403-1.958 2.090-2.996 66.581-100.646 189.412-101.099 189.412-101.099h83.095v-78.608c0-38.011 31.128-69.139 69.182-69.139h456.511c38.069 0 69.197 31.142 69.197 69.139v95.882h10.551v0.058h13.459c30.266 0 54.802 24.478 54.744 54.744l0.058 5.962c-0.058 30.222-24.537 54.627-54.758 54.627h-115.699c-30.222 0-54.627-24.464-54.627-54.671v-6.065c0-30.134 24.464-54.7 54.671-54.7h43.462v-37.032h-498.628v496.743c25.048 15.885 48.241 31.172 61.466 41.416 67.005 51.821 130.605 93.091 139.213 130.517 11.209 48.562-26.071 89.481-90.738 55.884-20.372-10.581-62.182-33.773-109.941-60.589v122.436l498.628-0.073v-224.222h-29.856v-0.058h-13.576c-30.236 0-54.773-24.464-54.773-54.758v-5.933c0-30.28 24.537-54.685 54.7-54.685h115.728c30.192 0 54.671 24.464 54.671 54.685v6.094c0.058 30.090-24.405 54.627-54.642 54.627zM629.715 39.671c19.174 0 34.635-15.476 34.635-34.606 0-19.174-15.476-34.591-34.635-34.591-19.1 0-34.533 15.462-34.533 34.591 0.029 19.071 15.505 34.606 34.533 34.606zM702.829 893.39h-146.081c-4.589 0-8.388 3.727-8.388 8.33 0 4.676 3.8 8.403 8.388 8.403h146.081c4.589 0 8.33-3.712 8.33-8.403 0-4.589-3.741-8.33-8.33-8.33zM951.281 352.965h-115.684c-30.163 0-54.7-24.537-54.7-54.744v-5.992c0-30.236 24.478-54.7 54.7-54.7h115.655c30.266 0 54.671 24.464 54.744 54.7v5.992c-0.015 30.207-24.42 54.744-54.715 54.744z" />
<glyph unicode="&#xe911;" glyph-name="sms" d="M803.625 894.673h-583.25c-121.501 0-220.375-101.033-220.375-225.188v-223.063c0-124.157 98.875-225.188 220.375-225.188h368.657l268-219.907v226.689c96.937 24.687 166.968 113.938 166.968 218.407v223.063c0 124.155-98.875 225.188-220.375 225.188zM235.813 461.765c-26.093 0-49.344 5.688-64.405 13.843l11.001 44.437c11.406-6.938 35.063-15.095 53.407-15.095 18.75 0 26.501 6.531 26.501 16.718 0 10.219-6.125 15.095-29.343 22.844-41.188 13.874-57.093 36.281-56.688 59.937 0 37.094 31.813 65.218 81.126 65.218 23.249 0 44.063-5.281 56.28-11.406l-11.001-42.812c-8.969 4.907-26.093 11.437-43.219 11.437-15.095 0-23.656-6.125-23.656-16.313 0-9.375 7.749-14.282 32.218-22.844 37.907-13.032 53.812-32.218 54.22-61.563-0.002-37.092-29.347-64.403-86.44-64.403zM661.032 465.828h-60.343v108.437c0 28.969-9.406 45.687-29.374 45.687-14.25 0-24.469-9.78-28.532-21.625-1.626-4.468-2.437-11.001-2.437-15.905v-116.594h-60.343v111.718c0 25.282-8.969 42.406-28.563 42.406-15.874 0-25.282-12.25-28.937-22.438-2.031-4.875-2.437-10.593-2.437-15.5v-116.188h-60.343v135.78c0 24.843-0.813 46.063-1.626 63.595h52.188l2.844-26.906h1.218c8.562 12.624 26.093 31.374 60.343 31.374 25.688 0 46.063-13.032 54.625-33.813h0.813c7.344 10.188 16.313 18.344 25.688 24.031 11.032 6.531 23.249 9.78 37.938 9.78 38.312 0 67.281-26.906 67.281-86.407v-117.432zM763.281 461.765c-26.093 0-49.344 5.688-64.405 13.843l11.001 44.437c11.406-6.938 35.063-15.095 53.407-15.095 18.75 0 26.501 6.531 26.501 16.718 0 10.219-6.125 15.095-29.345 22.844-41.188 13.874-57.093 36.281-56.688 59.937 0 37.094 31.813 65.218 81.126 65.218 23.249 0 44.032-5.281 56.28-11.406l-11.001-42.812c-8.969 4.907-26.093 11.437-43.219 11.437-15.095 0-23.656-6.125-23.656-16.313 0-9.375 7.749-14.282 32.218-22.844 37.907-13.032 53.812-32.218 54.22-61.563 0-37.092-29.345-64.403-86.438-64.403z" />
<glyph unicode="&#xe912;" glyph-name="sms3" d="M813.248 5.076v885.848c0 38.147-30.931 69.076-69.076 69.076h-464.376c-38.163 0-69.042-30.929-69.042-69.076v-885.848c0-38.163 30.879-69.076 69.042-69.076h464.376c38.145 0 69.076 30.913 69.076 69.076zM510.841-21.833c-24.039 0-43.491 19.434-43.491 43.457 0 24.004 19.452 43.457 43.491 43.457 23.953 0 43.457-19.452 43.457-43.457 0.016-24.021-19.504-43.457-43.457-43.457zM720.012 145.050c0-10.5-8.523-19.022-19.022-19.022h-378.029c-10.5 0-19.022 8.523-19.022 19.022v681.969c0 10.498 8.505 19.021 19.022 19.021h378.031c10.5 0 19.022-8.505 19.022-19.021v-681.969zM593.646 540.661c9.416 0 18.507-1.031 27.27-2.801-16.032 47.511-71.466 82.634-137.552 82.634-78.596 0-142.31-49.608-142.31-110.763 0-51.703 45.587-95.090 107.205-107.223-0.034-0.482-0.034-0.961-0.173-1.443-2.956-18.97-15.344-34.762-33.060-42.305 1.306 0.534 2.543 0.721 3.797 0.652-1.513 0.018-2.99-0.241-4.296-0.911-4.331-2.147-6.169-7.355-4.124-11.77 1.443-3.163 4.535-5.019 7.784-5.155-0.068 0-0.137-0.036-0.241-0.036 0.241 0 0.343 0.036 0.498 0 0.104 0 0.207 0 0.241 0 35.364-2.045 67.222 14.726 86.192 41.946-16.857 16.701-26.977 38.007-26.977 61.378 0.002 52.823 51.912 95.798 115.746 95.798zM587.461 517.79c-49.678 0-89.971-31.36-89.971-70.005 0-33.283 29.865-61.035 69.833-68.181 9.966-23.971 33.987-39.676 61.017-38.113 0.036 0 0.086 0 0.155 0 0.12 0.018 0.173 0 0.327 0-0.068 0-0.102 0.018-0.155 0.018 2.061 0.086 4.005 1.27 4.915 3.263 1.306 2.801 0.137 6.084-2.595 7.441-0.825 0.411-1.768 0.584-2.715 0.584 0.789 0.036 1.581-0.086 2.406-0.411-11.188 4.76-19.022 14.744-20.895 26.737-0.086 0.311-0.086 0.602-0.104 0.913 38.956 7.664 67.754 35.087 67.754 67.77 0 38.643-40.277 69.985-89.971 69.985zM550.911 449.193c5.569-1.786 11.581-4.228 11.581-12.44 0-8.505-6.494-13.042-15.535-13.042-6.133 0-12.508 2.456-15.137 4.226l3.556 8.645c2.801-1.786 8.144-3.729 11.633-3.729 2.268 0 4.228 0.739 4.228 3.54 0 2.509-2.631 3.369-6.187 4.417-5.206 1.581-11.702 4.106-11.702 12.304 0 8.214 6.376 12.801 14.812 12.801 5.824 0 11.324-2.561 14.933-6.048l-5.429-6.925c-3.265 2.388-6.685 4.158-9.502 4.158-1.96 0-3.851-0.911-3.851-3.179 0-2.579 2.801-3.506 6.598-4.728zM599.265 424.451l-1.152 21.495h-0.189l-6.546-17.389h-7.355l-6.496 16.771h-0.259l-1.152-20.877h-9.966l2.32 40.724h10.963l8.368-23.146h0.273l8.266 23.146h10.843l2.131-40.724h-10.050zM630.916 449.193c5.569-1.786 11.581-4.228 11.581-12.44 0-8.505-6.512-13.042-15.551-13.042-6.117 0-12.508 2.456-15.121 4.226l3.556 8.645c2.801-1.786 8.128-3.729 11.617-3.729 2.284 0 4.226 0.739 4.226 3.54 0 2.509-2.629 3.369-6.169 4.417-5.224 1.581-11.702 4.106-11.702 12.304 0 8.214 6.374 12.801 14.81 12.801 5.808 0 11.324-2.561 14.934-6.048l-5.448-6.925c-3.247 2.388-6.667 4.158-9.484 4.158-1.959 0-3.865-0.911-3.865-3.179 0-2.579 2.818-3.506 6.615-4.728z" />
<glyph unicode="&#xe913;" glyph-name="sms2" d="M537.945 390.516v-290.183h-403.607v722.732h319.553c10.886 12.62 23.309 24.51 37.234 35.5 38.317 30.239 84.985 51.263 135.727 61.774-2.382 13.527-14.157 23.811-28.365 23.811h-403.125v1.437c0 7.959-6.454 14.413-14.419 14.413h-58.618c-7.959 0-14.413-6.454-14.413-14.413v-1.44h-34.12c-15.918 0-28.823-12.908-28.823-28.829v-950.487c0-15.921 12.908-28.829 28.823-28.829h524.695c15.924 0 28.829 12.908 28.829 28.829v446.653c-34.795-12.227-65.254-18.208-89.372-20.968zM242.688 902.583h186.91v-32.674h-186.91v32.674zM336.143-10.661c-17.515 0-31.711 14.196-31.711 31.711s14.196 31.711 31.711 31.711c17.515 0 31.711-14.196 31.711-31.711s-14.199-31.711-31.711-31.711zM711.008 900.138c-147.791 0-268.025-96.046-268.025-214.103 0-66.417 38.908-129.333 104.522-169.719-2.596-11.564-12.286-37.793-48.384-68.258-3.706-3.129-5.217-8.149-3.852-12.807 1.365-4.652 5.351-8.063 10.16-8.694 0.669-0.086 6.841-0.857 17.75-0.857 31.003 0 94.154 6.109 171.236 46.647 5.571-0.271 11.135-0.407 16.593-0.407 147.791 0 268.025 96.043 268.025 214.094 0 118.058-120.238 214.103-268.025 214.103zM590.104 621.138c-17.265 0-35.265 7.409-46.989 19.341l-7.617 7.745 17.937 17.937 7.745-8.182c6.594-6.969 18.217-11.653 28.924-11.653 11.35 0 24.606 3.569 24.606 13.634 0.086 9.821-5.705 13.048-25.652 19.088-18.089 5.481-42.858 12.982-42.858 42.213 0 21.75 19.088 36.365 47.513 36.365 12.81 0 26.768-3.875 36.428-10.115l9.068-5.853-13.244-21.203-9.342 6.020c-5.529 3.563-14.737 5.957-22.91 5.957-11.112 0-22.324-3.453-22.324-11.171 0-9.074 5.99-12.337 25.212-18.149 18.375-5.553 43.539-13.161 43.307-43.242-0.003-23.13-20.013-38.733-49.803-38.733zM780.806 621.138h-25.171l-0.116 76.88-32.716-64.257h-13.75l-32.82 64.257v-76.88h-25.194v136.492h23.41l41.606-81.665 41.326 81.665h23.428v-136.492zM836.712 621.138c-17.259 0-35.259 7.409-46.989 19.341l-7.617 7.745 17.943 17.937 7.739-8.182c6.6-6.969 18.223-11.653 28.924-11.653 11.355 0 24.611 3.569 24.611 13.634 0.080 9.821-5.705 13.048-25.652 19.088-18.089 5.481-42.858 12.982-42.858 42.213 0 21.75 19.088 36.365 47.507 36.365 12.816 0 26.774-3.875 36.434-10.115l9.068-5.853-13.244-21.203-9.342 6.020c-5.529 3.563-14.737 5.957-22.916 5.957-11.106 0-22.318-3.453-22.318-11.171 0-9.074 5.99-12.337 25.209-18.149 18.375-5.553 43.539-13.161 43.307-43.242 0-23.13-20.010-38.733-49.806-38.733z" />
<glyph unicode="&#xe914;" glyph-name="sms4" d="M502.34 785.592c-194.425 0-352.604-145.176-352.604-323.623 0-82.944 33.734-161.019 95.271-221.223-23.919-62.445-46.080-86.982-55.605-88.064-9.351-1.043-16.597-8.656-17.157-18.084-0.541-9.409 5.777-17.833 14.974-19.939 0.754-0.174 18.992-4.309 45.771-4.309 39.395 0 95.483 8.714 144.867 48.766 39.859-13.814 81.688-20.808 124.503-20.808 194.425 0 352.604 145.176 352.604 323.623 0 178.485-158.218 323.661-352.623 323.661zM312.822 360.574c-21.060 0-41.868 5.468-52.263 11.245l8.482 34.449c11.225-5.738 28.459-11.496 46.235-11.496 19.147 0 29.271 7.941 29.271 19.978 0 11.496-8.752 18.065-30.913 25.986-30.643 10.665-50.62 27.629-50.62 54.446 0 31.454 26.257 55.547 69.767 55.547 20.789 0 36.11-4.386 47.065-9.293l-9.293-33.657c-7.381 3.555-20.519 8.752-38.584 8.752s-26.817-8.211-26.817-17.775c0-11.766 10.395-16.964 34.198-25.986 32.555-12.037 47.877-29 47.877-55.006 0-30.933-23.784-57.189-74.404-57.189zM574.078 363.317l-2.763 70.579c-0.792 22.161-1.623 48.997-1.623 75.776h-0.831c-5.738-23.533-13.389-49.79-20.519-71.41l-22.431-71.97h-32.555l-19.707 71.41c-6.028 21.62-12.307 47.877-16.693 71.95h-0.541c-1.101-24.904-1.913-53.325-3.285-76.336l-3.285-70.038h-38.584l11.766 184.397h55.547l18.065-61.556c5.738-21.33 11.496-44.322 15.592-65.961h0.811c5.197 21.33 11.496 45.694 17.505 66.212l19.707 61.285h54.446l10.105-184.397-40.728 0.058zM718.52 472.75c32.555-12.037 47.877-29 47.877-54.987 0-30.933-23.784-57.17-74.443-57.17-21.060 0-41.849 5.448-52.263 11.206l8.482 34.468c11.225-5.738 28.459-11.496 46.235-11.496 19.166 0 29.29 7.941 29.29 19.978 0 11.496-8.752 18.065-30.913 25.986-30.643 10.665-50.64 27.629-50.64 54.446 0 31.454 26.257 55.547 69.767 55.547 20.789 0 36.11-4.386 47.085-9.293l-9.293-33.657c-7.381 3.555-20.519 8.752-38.564 8.752-18.084 0-26.837-8.211-26.837-17.775 0.019-11.786 10.414-16.983 34.217-26.006zM927.396 960h-830.792c-53.267 0-96.604-43.336-96.604-96.604v-830.792c0-53.267 43.336-96.604 96.604-96.604h830.792c53.267 0 96.604 43.336 96.604 96.604v830.792c0 53.267-43.336 96.604-96.604 96.604zM985.358 32.604c0-31.957-26.006-57.962-57.962-57.962h-830.792c-31.957 0-57.962 26.006-57.962 57.962v830.792c0 31.957 26.006 57.962 57.962 57.962h830.792c31.957 0 57.962-26.006 57.962-57.962v-830.792z" />
<glyph unicode="&#xe915;" glyph-name="sms5" d="M105.98 198.785h376.125l320.267-262.787v262.787h115.648c58.355 0 105.809 48.296 105.809 107.682v545.85c0 59.387-47.452 107.682-105.809 107.682h-812.040c-58.355 0-105.809-48.296-105.809-107.682v-545.848c0-59.387 47.454-107.685 105.809-107.685zM760.511 554.231c-41.174 13.87-57.074 36.269-56.669 59.917 0 37.081 31.802 65.197 81.099 65.197 23.243 0 44.017-5.279 56.264-11.402l-10.997-42.797c-8.966 4.905-26.084 11.434-43.205 11.434-15.090 0-23.649-6.123-23.649-16.307 0-9.372 7.746-14.277 32.208-22.836 37.894-13.028 53.794-32.208 54.202-61.543 0-37.081-29.333-64.384-86.409-64.384-26.084 0-49.328 5.687-64.384 13.838l10.997 44.423c11.402-6.936 35.051-15.090 53.389-15.090 18.743 0 26.492 6.528 26.492 16.713-0.002 10.216-6.125 15.090-29.337 22.838zM410.472 674.876l2.843-26.897h1.218c8.559 12.62 26.084 31.364 60.323 31.364 25.679 0 46.048-13.028 54.607-33.802h0.813c7.341 10.184 16.307 18.338 25.679 24.023 11.028 6.528 23.241 9.777 37.925 9.777 38.299 0 67.258-26.897 67.258-86.378v-117.399h-60.323v108.401c0 28.959-9.403 45.672-29.364 45.672-14.246 0-24.461-9.777-28.522-21.618-1.625-4.466-2.436-10.997-2.436-15.9v-116.555h-60.323v111.681c0 25.274-8.966 42.392-28.554 42.392-15.871 0-25.274-12.246-28.928-22.431-2.031-4.874-2.436-10.59-2.436-15.495v-116.15h-60.323v135.735c0 24.835-0.813 46.048-1.625 63.573h52.167zM233.218 554.231c-41.174 13.87-57.074 36.269-56.669 59.917 0 37.081 31.802 65.197 81.099 65.197 23.243 0 44.049-5.279 56.261-11.402l-10.997-42.797c-8.966 4.905-26.084 11.434-43.205 11.434-15.090 0-23.649-6.123-23.649-16.307 0-9.372 7.746-14.277 32.208-22.836 37.894-13.028 53.794-32.208 54.202-61.543 0-37.081-29.333-64.384-86.409-64.384-26.084 0-49.328 5.687-64.384 13.838l10.997 44.423c11.402-6.936 35.051-15.090 53.389-15.090 18.743 0 26.492 6.528 26.492 16.713 0 10.216-6.123 15.090-29.335 22.838z" />
<glyph unicode="&#xe916;" glyph-name="calendar1" d="M229.517 359.724c58.421 0 105.931 47.51 105.931 105.931s-47.51 105.931-105.931 105.931-105.931-47.51-105.931-105.931 47.51-105.931 105.931-105.931zM229.517 536.276c38.947 0 70.621-31.673 70.621-70.621s-31.673-70.621-70.621-70.621-70.621 31.673-70.621 70.621 31.673 70.621 70.621 70.621zM512 359.724c58.421 0 105.931 47.51 105.931 105.931s-47.51 105.931-105.931 105.931-105.931-47.51-105.931-105.931 47.51-105.931 105.931-105.931zM512 536.276c38.947 0 70.621-31.673 70.621-70.621s-31.673-70.621-70.621-70.621-70.621 31.673-70.621 70.621 31.673 70.621 70.621 70.621zM794.483 359.724c58.421 0 105.931 47.51 105.931 105.931s-47.51 105.931-105.931 105.931-105.931-47.51-105.931-105.931 47.51-105.931 105.931-105.931zM794.483 536.276c38.947 0 70.621-31.673 70.621-70.621s-31.673-70.621-70.621-70.621-70.621 31.673-70.621 70.621 31.673 70.621 70.621 70.621zM229.517 77.241c58.421 0 105.931 47.51 105.931 105.931s-47.51 105.931-105.931 105.931-105.931-47.51-105.931-105.931 47.51-105.931 105.931-105.931zM229.517 253.793c38.947 0 70.621-31.673 70.621-70.621s-31.673-70.621-70.621-70.621-70.621 31.673-70.621 70.621 31.673 70.621 70.621 70.621zM512 77.241c58.421 0 105.931 47.51 105.931 105.931s-47.51 105.931-105.931 105.931-105.931-47.51-105.931-105.931 47.51-105.931 105.931-105.931zM512 253.793c38.947 0 70.621-31.673 70.621-70.621s-31.673-70.621-70.621-70.621-70.621 31.673-70.621 70.621 31.673 70.621 70.621 70.621zM794.483 77.241c58.421 0 105.931 47.51 105.931 105.931s-47.51 105.931-105.931 105.931-105.931-47.51-105.931-105.931 47.51-105.931 105.931-105.931zM459.034 960c-9.763 0-17.655-7.892-17.655-17.655s7.892-17.655 17.655-17.655c22.987 0 42.408-14.795 49.717-35.31h36.776c-8.21 40.236-43.873 70.621-86.493 70.621zM564.966 960c-9.763 0-17.655-7.892-17.655-17.655s7.892-17.655 17.655-17.655c22.987 0 42.408-14.795 49.717-35.31h36.776c-8.21 40.236-43.873 70.621-86.493 70.621zM670.897 960c-9.763 0-17.655-7.892-17.655-17.655s7.892-17.655 17.655-17.655c22.987 0 42.408-14.795 49.717-35.31h36.776c-8.21 40.236-43.873 70.621-86.493 70.621zM757.389 889.379c1.165-5.703 1.783-11.617 1.783-17.655 0-48.675-39.601-88.276-88.276-88.276-9.763 0-17.655 7.892-17.655 17.655s7.892 17.655 17.655 17.655c29.202 0 52.966 23.764 52.966 52.966 0 6.232-1.271 12.111-3.249 17.655h-69.155c1.165-5.703 1.783-11.617 1.783-17.655 0-48.675-39.601-88.276-88.276-88.276-9.763 0-17.655 7.892-17.655 17.655s7.892 17.655 17.655 17.655c29.202 0 52.966 23.764 52.966 52.966 0 6.232-1.271 12.111-3.249 17.655h-69.155c1.165-5.703 1.783-11.617 1.783-17.655 0-48.675-39.601-88.276-88.276-88.276-9.763 0-17.655 7.892-17.655 17.655s7.892 17.655 17.655 17.655c29.202 0 52.966 23.764 52.966 52.966 0 6.232-1.271 12.111-3.249 17.655h-69.155c1.165-5.703 1.783-11.617 1.783-17.655 0-48.675-39.601-88.276-88.276-88.276-9.763 0-17.655 7.892-17.655 17.655s7.892 17.655 17.655 17.655c29.202 0 52.966 23.764 52.966 52.966 0 6.232-1.271 12.111-3.249 17.655h-99.434c7.309 20.515 26.73 35.31 49.717 35.31s42.408-14.795 49.717-35.31h36.776c-8.21 40.236-43.873 70.621-86.493 70.621s-78.283-30.385-86.493-70.621h-266.611v-953.379h1024v953.379h-266.611zM988.69-28.69h-953.379v688.552h953.379v-688.552z" />
<glyph unicode="&#xe917;" glyph-name="calendar2" d="M551.797 236.136c3.384-3.384 7.828-5.085 12.271-5.085s8.886 1.701 12.271 5.085l57.153 57.153 57.153-57.153c3.384-3.384 7.828-5.085 12.271-5.085s8.886 1.701 12.271 5.085c6.786 6.786 6.786 17.755 0 24.541l-57.153 57.153 57.153 57.153c6.786 6.786 6.786 17.755 0 24.541s-17.755 6.786-24.541 0l-57.153-57.153-57.153 57.153c-6.786 6.786-17.755 6.786-24.541 0s-6.786-17.755 0-24.541l57.153-57.153-57.153-57.153c-6.786-6.786-6.786-17.755 0-24.541zM459.932 960c-9.598 0-17.356-7.758-17.356-17.356s7.758-17.356 17.356-17.356c22.597 0 41.689-14.544 48.874-34.712h36.152c-8.071 39.554-43.129 69.424-85.027 69.424zM564.068 960c-9.598 0-17.356-7.758-17.356-17.356s7.758-17.356 17.356-17.356c22.597 0 41.689-14.544 48.874-34.712h36.152c-8.071 39.554-43.129 69.424-85.027 69.424zM668.203 960c-9.598 0-17.356-7.758-17.356-17.356s7.758-17.356 17.356-17.356c22.597 0 41.689-14.544 48.874-34.712h36.152c-8.071 39.554-43.129 69.424-85.027 69.424zM753.23 890.576c1.145-5.606 1.753-11.42 1.753-17.356 0-47.85-38.929-86.78-86.78-86.78-9.598 0-17.356 7.758-17.356 17.356s7.758 17.356 17.356 17.356c28.707 0 52.068 23.361 52.068 52.068 0 6.127-1.25 11.906-3.193 17.356h-67.983c1.145-5.606 1.753-11.42 1.753-17.356 0-47.85-38.929-86.78-86.78-86.78-9.598 0-17.356 7.758-17.356 17.356s7.758 17.356 17.356 17.356c28.707 0 52.068 23.361 52.068 52.068 0 6.127-1.25 11.906-3.193 17.356h-67.983c1.145-5.606 1.753-11.42 1.753-17.356 0-47.85-38.929-86.78-86.78-86.78-9.598 0-17.356 7.758-17.356 17.356s7.758 17.356 17.356 17.356c28.707 0 52.068 23.361 52.068 52.068 0 6.127-1.25 11.906-3.193 17.356h-67.983c1.145-5.606 1.753-11.42 1.753-17.356 0-47.85-38.929-86.78-86.78-86.78-9.598 0-17.356 7.758-17.356 17.356s7.758 17.356 17.356 17.356c28.707 0 52.068 23.361 52.068 52.068 0 6.127-1.25 11.906-3.193 17.356h-97.749c7.185 20.168 26.277 34.712 48.874 34.712s41.689-14.544 48.874-34.712h36.152c-8.071 39.554-43.112 69.424-85.027 69.424s-76.956-29.87-85.027-69.424h-262.092v-954.576h1006.644v954.576h-262.092zM251.661-29.288h-208.271v208.271h208.271v-208.271zM251.661 213.695h-208.271v208.271h208.271v-208.271zM251.661 456.678h-208.271v208.271h208.271v-208.271zM494.644-29.288h-208.271v208.271h208.271v-208.271zM494.644 213.695h-208.271v208.271h208.271v-208.271zM494.644 456.678h-208.271v208.271h208.271v-208.271zM737.627-29.288h-208.271v208.271h208.271v-208.271zM737.627 213.695h-208.271v208.271h208.271v-208.271zM737.627 456.678h-208.271v208.271h208.271v-208.271zM980.61-29.288h-208.271v208.271h208.271v-208.271zM980.61 213.695h-208.271v208.271h208.271v-208.271zM980.61 456.678h-208.271v208.271h208.271v-208.271z" />
<glyph unicode="&#xe918;" glyph-name="serviceRemainder" d="M128.001 799.997v128.003c0 17.69 14.311 32 32.004 32 17.685 0 31.996-14.311 31.996-32v-128.003c0-17.685-14.311-31.996-31.996-31.996-17.694-0.002-32.004 14.311-32.004 31.996zM672.008 767.998c17.681 0 32 14.311 32 31.996v128.005c0 17.69-14.319 32-32 32-17.69 0-32.011-14.311-32.011-32v-128.003c0-17.685 14.321-31.998 32.011-31.998zM1024 192.006c0-141.39-114.621-256.008-256-256.008-141.368 0-255.998 114.619-255.998 256.008 0 141.368 114.627 255.994 255.998 255.994 141.379 0 256-114.623 256-255.994zM960.008 192.006c0 105.861-86.126 191.997-192.006 191.997-105.871 0-191.997-86.135-191.997-191.997 0-105.882 86.126-192.006 191.997-192.006 105.88 0 192.006 86.124 192.006 192.006zM256.004 575.999h-128.003v-127.999h128.003v127.999zM128.001 255.998h128.003v128.005h-128.003v-128.005zM320.001 448h128.005v127.999h-128.005v-127.999zM320.001 255.998h128.005v128.005h-128.005v-128.005zM64.005 198.369v441.632h703.997v-128.003h64.003v249.622c0 38.876-31.006 70.38-69.312 70.38h-26.69v-32.007c0-35.246-28.693-63.998-63.992-63.998-35.309 0-64.001 28.752-64.001 63.998v32.007h-384.010v-32.007c0-35.246-28.687-63.998-63.992-63.998-35.314 0-64.003 28.752-64.003 63.998v32.007h-26.659c-38.308 0-69.344-31.504-69.344-70.38v-563.254c0-38.747 31.036-70.374 69.344-70.374h378.66v64.011h-378.66c-2.9 0.002-5.341 2.997-5.341 6.365zM639.997 448v127.999h-127.993v-127.999h127.993zM864.003 192.006h-96.003v96.003c0 17.679-14.311 31.99-32 31.99s-31.992-14.311-31.992-31.99v-128.014c0-17.681 14.302-32 31.992-32h128.003c17.69 0 32 14.319 32 32 0 17.69-14.311 32.011-32 32.011z" />
<glyph unicode="&#xe919;" glyph-name="campaign" d="M32.527 659.836c-17.964 0-32.527-14.564-32.527-32.527v-253.888c0-17.964 14.564-32.527 32.527-32.527s32.527 14.564 32.527 32.527v253.888c0 17.964-14.564 32.527-32.527 32.527zM721.798 849.584h-135.332c-17.964 0-32.527-14.564-32.527-32.527v-29.383l-435.586-129.169c-13.809-4.094-23.281-16.784-23.281-31.183v-253.766c-0.009-1.626 0.147-3.266 0.39-4.909 0.043-0.304 0.087-0.607 0.139-0.906 0.243-1.344 0.538-2.689 0.958-4.025l92.209-294.482c4.354-13.909 17.188-22.817 31.031-22.817 3.214 0 6.484 0.481 9.715 1.492l134.278 41.986c8.236 2.576 15.11 8.318 19.109 15.96 4.003 7.642 4.801 16.563 2.225 24.799l-45.695 146.022 214.504-63.624v-29.379c0-17.964 14.564-32.527 32.527-32.527h135.332c17.964 0 32.527 14.564 32.527 32.527v633.384c0.004 17.964-14.559 32.527-32.523 32.527zM313.326 142.276l-72.194-22.574-64.248 205.188 87.408-25.922 49.034-156.691zM299.591 356.346c-0.091 0.026-0.186 0.056-0.278 0.082l-139.183 41.284v205.327l393.812 116.778v-438.913l-254.352 75.442zM689.27 216.196h-70.277v568.329h70.277v-568.329zM975.66 318.259l-140.744 70.385c-16.073 8.028-35.607 1.527-43.643-14.546-8.036-16.069-1.522-35.607 14.546-43.643l140.744-70.385c4.671-2.338 9.632-3.439 14.525-3.439 11.931 0 23.42 6.588 29.119 17.986 8.032 16.069 1.518 35.607-14.546 43.643zM820.391 608.651c4.888 0 9.854 1.106 14.52 3.444l140.749 70.376c16.069 8.036 22.583 27.57 14.546 43.639-8.032 16.069-27.575 22.583-43.639 14.546l-140.749-70.376c-16.069-8.036-22.583-27.57-14.546-43.639 5.699-11.402 17.188-17.99 29.119-17.99zM991.473 532.892h-117.524c-17.964 0-32.527-14.564-32.527-32.527s14.564-32.527 32.527-32.527h117.524c17.964 0 32.527 14.564 32.527 32.527 0 17.968-14.564 32.527-32.527 32.527z" />
<glyph unicode="&#xe91a;" glyph-name="microphone-(1)" d="M788.736 671.719v-241.265c0-145.534-113.798-247.176-276.736-247.176s-276.736 101.642-276.736 247.176v241.265h-90.579v-241.265c0-97.469 39-185.203 109.819-247.042 50.496-44.091 114.888-73.243 185.957-84.931v-40.718h-156.020v-121.763h455.118v121.763h-161.296v39.893c73.155 11.092 139.491 40.575 191.233 85.756 70.819 61.839 109.819 149.571 109.819 247.042v241.265h-90.579zM511.995 246.297c127.71 0 231.613 103.918 231.613 231.647v274.493c0 61.832-25.078 116.618-70.61 154.27-41.56 34.367-98.739 53.292-161.004 53.292s-119.444-18.926-161.004-53.29c-45.532-37.652-70.61-92.438-70.61-154.27v-274.493c0.002-127.735 103.903-231.65 231.613-231.65zM415.865 855.408v-138.829h73.007v162.805c7.663 0.835 15.395 1.27 23.124 1.27 7.602 0 15.207-0.419 22.746-1.227v-162.848h73.007v139.068c33.391-20.663 56.514-54.531 56.514-103.207v-137.956h-304.532v137.953c0 48.493 22.948 82.288 56.135 102.971z" />
<glyph unicode="&#xe91b;" glyph-name="microphone-(2)" d="M776.828 465.655c-9.746 0-17.655-7.892-17.655-17.655v-105.931c0-136.298-110.874-247.172-247.172-247.172s-247.172 110.874-247.172 247.172v105.931c0 9.763-7.91 17.655-17.655 17.655s-17.655-7.892-17.655-17.655v-105.931c0-149.804 117.301-272.402 264.828-281.582v-89.176h-88.276c-9.746 0-17.655-7.892-17.655-17.655s7.91-17.655 17.655-17.655h211.862c9.746 0 17.655 7.892 17.655 17.655s-7.91 17.655-17.655 17.655h-88.276v89.176c147.527 9.181 264.828 131.796 264.828 281.582v105.931c0 9.763-7.91 17.655-17.655 17.655zM512 147.862c107.079 0 194.207 87.128 194.207 194.207v423.724c0 107.079-87.128 194.207-194.207 194.207s-194.207-87.128-194.207-194.207v-423.724c0-107.079 87.128-194.207 194.207-194.207z" />
<glyph unicode="&#xe91c;" glyph-name="microphone" d="M511.986 960c-282.757 0-511.983-229.243-511.983-511.99s229.226-512.010 511.983-512.010 512.010 229.25 512.010 512.010-229.253 511.99-512.010 511.99zM373.309 618.479c0 71.741 58.368 130.099 130.099 130.099s130.099-58.365 130.099-130.099v-156.269c0-71.735-58.368-130.092-130.099-130.092s-130.099 58.368-130.099 130.092v156.269zM714.697 457.277c0-108.073-81.596-197.4-186.412-209.756v-71.39h43.697v-53.118h-140.503v53.118h43.697v71.823c-103.188 13.844-183.050 102.41-183.050 209.333v74.213h53.118v-74.213c0-87.207 70.956-158.153 158.164-158.153s158.174 70.956 158.174 158.153v74.213h53.118c-0.003 0-0.003-74.223-0.003-74.223zM503.409 385.225c42.448 0 76.984 34.526 76.984 76.974v44.343h-153.969v-44.343c0-42.441 34.536-76.974 76.984-76.974z" />
<glyph unicode="&#xe91d;" glyph-name="rec-button" d="M431.432 494.361c5.939 5.103 8.826 12.606 8.826 22.94 0 10.198-2.944 18.030-8.999 23.937-5.998 5.845-15.17 8.811-27.261 8.811h-39.27v-63.488h38.433c12.735 0 22.247 2.623 28.27 7.8zM0 799.020v-702.040h1024v702.040h-1024zM174.388 372.118c-45.137 0-81.73 36.593-81.73 81.73s36.593 81.73 81.73 81.73 81.73-36.593 81.73-81.73c0-45.137-36.593-81.73-81.73-81.73zM510.194 344.228h-55.326l-1.014 0.809c-5.179 4.143-8.555 10.938-10.035 20.196-1.362 8.515-2.053 16.702-2.053 24.327v17.22c0 11.084-2.991 19.747-8.888 25.748-5.964 6.060-14.26 9.006-25.366 9.006h-42.779v-97.31h-56.226v250.843h95.494c28.489 0 51.183-6.66 67.448-19.797 16.502-13.332 24.867-32.107 24.867-55.799 0-13.334-3.558-24.981-10.573-34.614-5.47-7.511-12.996-13.934-22.427-19.165 10.938-4.599 19.209-11.242 24.65-19.811 6.652-10.479 10.025-23.522 10.025-38.766v-17.889c0-6.47 0.891-13.342 2.65-20.426 1.629-6.573 4.377-11.442 8.165-14.469l1.389-1.113v-8.991zM708.99 344.228h-174.1v250.843h173.764v-45.021h-117.54v-53.793h100.818v-45.021h-100.818v-61.985h117.874v-45.021zM923.33 507.977l-1.362-4.071h-53.85v3.701c0 15.032-3.561 26.602-10.585 34.389-6.921 7.676-18.089 11.567-33.197 11.567-13.467 0-23.863-5.317-31.779-16.258-8.076-11.158-12.172-25.686-12.172-43.183v-48.607c0-17.684 4.301-32.302 12.786-43.445 8.365-10.985 19.38-16.327 33.671-16.327 14.099 0 24.559 3.718 31.095 11.052 6.645 7.457 10.015 18.921 10.015 34.071v3.701h53.682l1.362-4.071 0.010-0.568c0.461-27.164-8.007-49.078-25.166-65.131-17.075-15.972-40.962-24.070-70.994-24.070-30.219 0-55.133 9.885-74.049 29.378-18.888 19.461-28.467 44.797-28.467 75.31v48.32c0 30.377 9.339 55.698 27.759 75.268 18.476 19.634 42.786 29.587 72.248 29.587 30.903 0 55.481-8.116 73.049-24.122 17.682-16.115 26.414-38.293 25.955-65.916l-0.012-0.575z" />
<glyph unicode="&#xe91e;" glyph-name="record" d="M812.138 659.862c-117.001 0-211.862-94.861-211.862-211.862 0-73.728 37.711-138.611 94.844-176.552h-366.239c57.132 37.941 94.844 102.824 94.844 176.552 0 117.001-94.861 211.862-211.862 211.862s-211.862-94.861-211.862-211.862c0-117.001 94.861-211.862 211.862-211.862h600.276c117.001 0 211.862 94.861 211.862 211.862s-94.861 211.862-211.862 211.862z" />
<glyph unicode="&#xe91f;" glyph-name="roaster" d="M551.797 236.136c3.384-3.384 7.828-5.085 12.271-5.085s8.886 1.701 12.271 5.085l57.153 57.153 57.153-57.153c3.384-3.384 7.828-5.085 12.271-5.085s8.886 1.701 12.271 5.085c6.786 6.786 6.786 17.755 0 24.541l-57.153 57.153 57.153 57.153c6.786 6.786 6.786 17.755 0 24.541s-17.755 6.786-24.541 0l-57.153-57.153-57.153 57.153c-6.786 6.786-17.755 6.786-24.541 0s-6.786-17.755 0-24.541l57.153-57.153-57.153-57.153c-6.786-6.786-6.786-17.755 0-24.541zM459.932 960c-9.598 0-17.356-7.758-17.356-17.356s7.758-17.356 17.356-17.356c22.597 0 41.689-14.544 48.874-34.712h36.152c-8.071 39.554-43.129 69.424-85.027 69.424zM564.068 960c-9.598 0-17.356-7.758-17.356-17.356s7.758-17.356 17.356-17.356c22.597 0 41.689-14.544 48.874-34.712h36.152c-8.071 39.554-43.129 69.424-85.027 69.424zM668.203 960c-9.598 0-17.356-7.758-17.356-17.356s7.758-17.356 17.356-17.356c22.597 0 41.689-14.544 48.874-34.712h36.152c-8.071 39.554-43.129 69.424-85.027 69.424zM753.23 890.576c1.145-5.606 1.753-11.42 1.753-17.356 0-47.85-38.929-86.78-86.78-86.78-9.598 0-17.356 7.758-17.356 17.356s7.758 17.356 17.356 17.356c28.707 0 52.068 23.361 52.068 52.068 0 6.127-1.25 11.906-3.193 17.356h-67.983c1.145-5.606 1.753-11.42 1.753-17.356 0-47.85-38.929-86.78-86.78-86.78-9.598 0-17.356 7.758-17.356 17.356s7.758 17.356 17.356 17.356c28.707 0 52.068 23.361 52.068 52.068 0 6.127-1.25 11.906-3.193 17.356h-67.983c1.145-5.606 1.753-11.42 1.753-17.356 0-47.85-38.929-86.78-86.78-86.78-9.598 0-17.356 7.758-17.356 17.356s7.758 17.356 17.356 17.356c28.707 0 52.068 23.361 52.068 52.068 0 6.127-1.25 11.906-3.193 17.356h-67.983c1.145-5.606 1.753-11.42 1.753-17.356 0-47.85-38.929-86.78-86.78-86.78-9.598 0-17.356 7.758-17.356 17.356s7.758 17.356 17.356 17.356c28.707 0 52.068 23.361 52.068 52.068 0 6.127-1.25 11.906-3.193 17.356h-97.749c7.185 20.168 26.277 34.712 48.874 34.712s41.689-14.544 48.874-34.712h36.152c-8.071 39.554-43.112 69.424-85.027 69.424s-76.956-29.87-85.027-69.424h-262.092v-954.576h1006.644v954.576h-262.092zM251.661-29.288h-208.271v208.271h208.271v-208.271zM251.661 213.695h-208.271v208.271h208.271v-208.271zM251.661 456.678h-208.271v208.271h208.271v-208.271zM494.644-29.288h-208.271v208.271h208.271v-208.271zM494.644 213.695h-208.271v208.271h208.271v-208.271zM494.644 456.678h-208.271v208.271h208.271v-208.271zM737.627-29.288h-208.271v208.271h208.271v-208.271zM737.627 213.695h-208.271v208.271h208.271v-208.271zM737.627 456.678h-208.271v208.271h208.271v-208.271zM980.61-29.288h-208.271v208.271h208.271v-208.271zM980.61 213.695h-208.271v208.271h208.271v-208.271zM980.61 456.678h-208.271v208.271h208.271v-208.271z" />
<glyph unicode="&#xe920;" glyph-name="sound-recording" d="M959.009 605.149c-41.973 41.975-97.784 65.095-157.148 65.095s-115.173-23.118-157.15-65.095c-76.146-76.148-85.351-194.247-27.668-280.567h-210.088c57.683 86.323 48.478 204.421-27.668 280.567-41.975 41.975-97.786 65.095-157.15 65.095-59.362 0-115.173-23.118-157.15-65.095-86.651-86.651-86.651-227.647 0-314.299 41.975-41.975 97.786-65.095 157.15-65.095 8.382 0 571.34 0 579.725 0 59.362 0 115.173 23.118 157.148 65.095 86.653 86.651 86.653 227.647 0 314.299zM893.049 404.227l-22.268 22.268-48.068-48.068 22.080-22.080c-13.265-6.222-27.844-9.51-42.931-9.51-15.257 0-29.995 3.358-43.38 9.719l21.874 21.874-48.068 48.068-21.828-21.828c-12.864 27.199-12.941 58.986-0.215 86.234l22.046-22.046 48.068 48.068-22.306 22.306c13.501 6.497 28.391 9.936 43.813 9.936 15.257 0 29.995-3.358 43.378-9.719l-22.526-22.526 48.068-48.068 22.483 22.483c13.002-27.495 12.925-59.67-0.218-87.111zM152.564 426.492l-21.828-21.828c-12.864 27.199-12.941 58.984-0.215 86.232l22.043-22.043 48.068 48.068-22.306 22.306c13.498 6.497 28.391 9.936 43.813 9.936 15.257 0 29.995-3.358 43.38-9.719l-22.526-22.526 48.068-48.068 22.526 22.526c6.361-13.383 9.719-28.123 9.719-43.38 0-15.422-3.442-30.314-9.936-43.815l-22.306 22.306-48.068-48.068 22.080-22.080c-13.265-6.225-27.844-9.513-42.934-9.513-15.257 0-29.997 3.358-43.38 9.719l21.874 21.874-48.071 48.073z" />
<glyph unicode="&#xe921;" glyph-name="verification" d="M519.754 886.858h-22.528c-12.037 0-21.795 9.76-21.795 21.795v0.733c0 27.954-22.662 50.614-50.616 50.614h-1.17c-27.954 0-50.614-22.66-50.614-50.614v-0.733c0-12.037-9.76-21.797-21.795-21.797h-22.528c-23.995 0-43.446-19.451-43.446-43.446v-0.878c0-23.995 19.451-43.446 43.446-43.446h191.051c23.994 0 43.445 19.453 43.445 43.446v0.88c-0.002 23.994-19.453 43.446-43.45 43.446zM424.229 886.858c-12.119 0-21.942 9.825-21.942 21.942 0 12.119 9.825 21.944 21.942 21.944 12.119 0 21.942-9.825 21.942-21.944s-9.823-21.942-21.942-21.942zM521.92 38.4h-368.32c-32.316 0-58.514 26.197-58.514 58.514v702.173c0 32.316 26.197 58.514 43.885 58.514h118.553c-0.989-4.859-1.523-9.895-1.523-15.072 0-40.087 32.614-72.701 72.707-72.701h191.043c40.095 0 72.706 32.614 72.706 73.586 0 4.857-0.52 9.592-1.431 14.187h89.202c46.948 0 73.144-26.197 73.144-58.514v-439.597c-4.862 0.303-9.69 0.74-14.627 0.74-20.236 0-39.774-2.851-58.517-7.703v344.161h-512v-585.144h337.197c1.603-25.712 7.222-50.323 16.494-73.142zM738.744 316.342c-105.029 0-190.17-85.144-190.17-190.171s85.139-190.171 190.17-190.171 190.17 85.144 190.17 190.171-85.141 190.171-190.17 190.171zM863.008 165.244l-117.029-131.658c-5.764-6.487-13.794-9.813-21.879-9.813-6.422 0-12.879 2.1-18.265 6.413l-73.144 58.514c-12.614 10.086-14.664 28.501-4.563 41.116 10.084 12.628 28.506 14.672 41.121 4.57l51.448-41.157 98.578 110.9c10.722 12.072 29.222 13.171 41.301 2.428 12.082-10.742 13.166-29.228 2.431-41.311zM607.086 448h-234.056c-8.080 0-14.629 6.551-14.629 14.629v14.629c0 8.080 6.549 14.629 14.629 14.629h234.056c8.078 0 14.63-6.551 14.63-14.629v-14.629c-0.003-8.078-6.552-14.629-14.63-14.629zM607.086 579.658h-234.056c-8.080 0-14.629 6.551-14.629 14.629v14.629c0 8.080 6.549 14.629 14.629 14.629h234.056c8.078 0 14.63-6.551 14.63-14.629v-14.629c-0.003-8.080-6.552-14.629-14.63-14.629zM533.942 330.971h-160.912c-8.080 0-14.629 6.551-14.629 14.629v14.629c0 8.080 6.549 14.629 14.629 14.629h160.912c8.082 0 14.63-6.549 14.63-14.629v-14.629c-0.003-8.078-6.549-14.629-14.63-14.629zM504.686 199.314h-131.658c-8.080 0-14.629 6.551-14.629 14.629v14.629c0 8.080 6.549 14.629 14.629 14.629h131.658c8.080 0 14.629-6.549 14.629-14.629v-14.629c0-8.078-6.549-14.629-14.629-14.629zM330.392 633.757l-53.875-60.61c-2.654-2.987-6.35-4.519-10.073-4.519-2.957 0-5.928 0.967-8.408 2.953l-33.673 26.937c-5.808 4.643-6.75 13.12-2.102 18.927 4.641 5.814 13.125 6.755 18.931 2.105l23.684-18.946 45.382 51.054c4.936 5.557 13.453 6.064 19.013 1.118 5.565-4.946 6.064-13.456 1.121-19.019zM330.392 503.606l-53.875-60.608c-2.654-2.987-6.35-4.518-10.073-4.518-2.957 0-5.928 0.965-8.408 2.953l-33.673 26.937c-5.808 4.643-6.75 13.12-2.102 18.927 4.641 5.814 13.125 6.755 18.931 2.105l23.684-18.947 45.382 51.054c4.936 5.557 13.453 6.064 19.013 1.116 5.565-4.944 6.064-13.456 1.121-19.019zM330.392 379.138l-53.875-60.61c-2.654-2.985-6.35-4.518-10.073-4.518-2.957 0-5.928 0.965-8.408 2.953l-33.673 26.939c-5.808 4.641-6.75 13.12-2.102 18.927 4.641 5.814 13.125 6.755 18.931 2.105l23.684-18.946 45.382 51.054c4.936 5.557 13.453 6.064 19.013 1.118 5.565-4.949 6.064-13.459 1.121-19.023zM330.392 253.791l-53.875-60.61c-2.654-2.987-6.35-4.518-10.073-4.518-2.957 0-5.928 0.965-8.408 2.953l-33.673 26.939c-5.808 4.641-6.75 13.12-2.102 18.927 4.641 5.814 13.125 6.755 18.931 2.105l23.684-18.946 45.382 51.054c4.936 5.557 13.453 6.064 19.013 1.118 5.565-4.949 6.064-13.461 1.121-19.023z" />
</font>
</defs>
</svg>
